<svg width="30" height="30" viewBox="0 0 30 30" fill="none" xmlns="http://www.w3.org/2000/svg">
<path d="M12.1865 11.097L18.3972 14.6264L12.1865 18.1558V11.097ZM29.2268 3.13144V26.0953C29.2268 27.8242 27.8242 29.2268 26.0953 29.2268H3.13144C1.40262 29.2268 0 27.8242 0 26.0953V3.13144C0 1.40262 1.40262 0 3.13144 0H26.0953C27.8242 0 29.2268 1.40262 29.2268 3.13144ZM26.4868 14.633C26.4868 14.633 26.4868 10.7448 25.991 8.87894C25.717 7.84817 24.9145 7.03922 23.8903 6.76521C22.044 6.26288 14.6134 6.26288 14.6134 6.26288C14.6134 6.26288 7.18274 6.26288 5.3365 6.76521C4.31225 7.03922 3.50982 7.84817 3.23582 8.87894C2.74001 10.7382 2.74001 14.633 2.74001 14.633C2.74001 14.633 2.74001 18.5212 3.23582 20.387C3.50982 21.4177 4.31225 22.1941 5.3365 22.4681C7.18274 22.9639 14.6134 22.9639 14.6134 22.9639C14.6134 22.9639 22.044 22.9639 23.8903 22.4616C24.9145 22.1876 25.717 21.4112 25.991 20.3805C26.4868 18.5212 26.4868 14.633 26.4868 14.633Z" fill="#EBEBEB"/>
</svg>
