<svg width="279" height="173" viewBox="0 0 279 173" fill="none" xmlns="http://www.w3.org/2000/svg">
<path d="M29.6768 22.1478H41.1749C39.617 33.1181 30.6296 37.2126 20.7795 37.2126C10.0024 37.2126 0.178101 32.3584 0.178101 18.9417C0.178101 5.52506 9.9509 0.709473 20.728 0.709473C30.5781 0.709473 39.5655 4.81688 41.1234 15.7871H29.6768C28.6338 11.3321 26.1359 8.71828 20.7795 8.71828C14.3416 8.71828 11.4703 12.7742 11.4703 18.9417C11.4703 25.1093 14.3931 29.2425 20.7795 29.2425C26.0844 29.2038 28.5823 26.6029 29.6768 22.1478Z" fill="#EBEBEB"/>
<path d="M77.588 36.4658H44.8961V1.40479H56.111V28.4442H77.588V36.4658Z" fill="#EBEBEB"/>
<path d="M114.052 36.4658H81.3605V1.40479H92.5754V28.4442H114.052V36.4658Z" fill="#EBEBEB"/>
<path d="M156.427 26.1523C156.427 34.2126 151.277 36.453 140.976 36.453H117.825V1.40479H141.903C149.847 1.40479 155.191 3.25891 155.191 10.4179C155.191 14.5253 153.015 16.7786 149.474 17.9761C153.723 19.1864 156.427 21.5942 156.427 26.1523ZM129.04 9.52947V15.182H140.77C143.564 15.182 144.272 13.8944 144.272 12.272C144.272 10.6497 143.564 9.52947 140.77 9.52947H129.04ZM145.07 25.1737C145.07 23.5256 144.272 22.3667 141.336 22.3667H129.04V28.4313H141.336C144.362 28.4055 145.07 27.0021 145.07 25.1737Z" fill="#EBEBEB"/>
<path d="M180.209 25.0964H171.415V36.4658H160.2V1.40479H183.763C192.892 1.40479 197.926 5.87272 197.926 12.9931C198.061 15.2368 197.478 17.4652 196.263 19.3562C195.048 21.2472 193.263 22.7028 191.166 23.5127L199.021 36.3886H186.956L180.209 25.0964ZM171.415 17.0876H182.153C185.462 17.0876 186.505 15.285 186.505 13.0317C186.505 10.7784 185.128 9.52947 182.153 9.52947H171.415V17.0876Z" fill="#EBEBEB"/>
<path d="M236.683 9.52947H224.103V36.4658H212.901V9.52947H200.36V1.40479H236.644L236.683 9.52947Z" fill="#EBEBEB"/>
<path d="M278.581 1.40479V36.4658H266.709L251.67 15.6326V36.4658H240.455V1.40479H252.327L267.379 22.2895V1.40479H278.581Z" fill="#EBEBEB"/>
<path d="M17.0841 169.461H7.96793L6.78335 172.525H0.0621338L8.83062 152.645H16.2214L24.9641 172.538H18.2944L17.0841 169.461ZM15.3329 164.851L12.526 157.654L9.74481 164.851H15.3329Z" fill="#EBEBEB"/>
<path d="M44.9473 172.525H26.3159V152.645H32.7539V167.967H44.9988L44.9473 172.525Z" fill="#EBEBEB"/>
<path d="M65.7293 172.525H47.1107V152.645H53.5487V167.967H65.7293V172.525Z" fill="#EBEBEB"/>
<path d="M93.7986 172.525H74.9225V152.645H93.5281V157.242H81.3089V160.036H92.7685V164.632H81.3089V167.967H93.7986V172.525Z" fill="#EBEBEB"/>
<path d="M118.739 152.645L110.01 165.521V172.564H103.572V165.521L94.8418 152.645H101.936L106.765 160.577L111.658 152.645H118.739Z" fill="#EBEBEB"/>
<path d="M138.98 172.525H120.091V152.645H138.71V157.242H126.491V160.036H137.95V164.632H126.491V167.967H138.98V172.525Z" fill="#EBEBEB"/>
<path d="M163.006 166.216C163.006 170.993 159.144 172.95 151.74 172.95C143.757 172.95 140.602 170.259 140.602 166.074H147.285C147.285 167.929 149.448 168.431 152.088 168.431C154.727 168.431 156.131 168.032 156.131 166.924C156.131 165.637 154.302 165.637 148.882 164.8C143.075 163.86 141.027 162.572 141.027 158.594C141.027 154.615 144.079 152.233 151.405 152.233C159.427 152.233 161.796 155.272 161.796 158.671H155.358C155.358 157.306 153.852 156.714 151.392 156.714C148.933 156.714 147.452 157.113 147.452 158.246C147.452 159.611 149.809 159.727 153.041 160.061C158.886 160.757 163.006 161.182 163.006 166.216Z" fill="#EBEBEB"/>
<path d="M195.943 162.572C195.943 170.195 189.763 172.95 183.647 172.95C177.531 172.95 171.376 170.195 171.376 162.572C171.376 154.95 177.518 152.272 183.647 152.272C189.776 152.272 195.943 154.989 195.943 162.572ZM189.505 162.572C189.505 158.967 187.432 156.778 183.711 156.778C182.931 156.703 182.144 156.8 181.405 157.065C180.667 157.329 179.997 157.753 179.442 158.307C178.887 158.861 178.462 159.53 178.196 160.268C177.93 161.005 177.83 161.792 177.904 162.572C177.904 166.216 180.016 168.405 183.711 168.405C187.406 168.405 189.441 166.216 189.441 162.572H189.505Z" fill="#EBEBEB"/>
<path d="M219.841 152.645V172.538H213.068L204.493 160.718V172.538H198.055V152.645H204.815L213.403 164.491V152.645H219.841Z" fill="#EBEBEB"/>
<path d="M257.065 152.645V172.538H250.627V159.662L246.108 172.538H240.442L235.91 159.662V172.538H229.472V152.645H238.807L243.236 165.714L247.73 152.645H257.065Z" fill="#EBEBEB"/>
<path d="M278.645 172.525H259.769V152.645H278.375V157.242H266.155V160.036H277.615V164.632H266.155V167.967H278.645V172.525Z" fill="#EBEBEB"/>
<path d="M202.909 89.8621C204.034 89.8012 205.093 89.3114 205.868 88.4935C206.643 87.6755 207.075 86.5917 207.075 85.465C207.075 84.3383 206.643 83.2545 205.868 82.4365C205.093 81.6186 204.034 81.1288 202.909 81.0679L201.621 81.2739C200.597 81.5646 199.714 82.2184 199.138 83.113C198.561 84.0076 198.33 85.0817 198.488 86.1344C198.645 87.187 199.181 88.1461 199.995 88.8322C200.809 89.5184 201.845 89.8845 202.909 89.8621Z" fill="#EBEBEB"/>
<path d="M209.102 106.086C203.663 106.083 198.442 103.944 194.565 100.129C190.687 96.3144 188.463 91.1291 188.372 85.6904L173.887 92.0254V96.3774L191.681 104.103C197.163 106.5 203.081 107.737 209.064 107.737C215.046 107.737 220.964 106.5 226.446 104.103L244.253 96.3774V92.0254L229.82 85.6904C229.735 91.129 227.515 96.3162 223.639 100.132C219.763 103.948 214.542 106.086 209.102 106.086Z" fill="#EBEBEB"/>
<path d="M139.354 48.8911V138.894H278.645V48.8911H139.354ZM259.177 89.8622V105.893L226.472 120.185C220.99 122.582 215.072 123.819 209.089 123.819C203.107 123.819 197.189 122.582 191.707 120.185L159.092 105.918H159.028V83.6818V82.523L191.72 68.2307C197.201 65.831 203.119 64.5904 209.102 64.5868C215.081 64.5918 220.995 65.8324 226.472 68.2307L259.177 82.523V89.8622Z" fill="#EBEBEB"/>
<path d="M139.534 57.3633V130.37H9.07526V57.3633H139.534ZM148.547 48.8652H0.0621338V138.868H148.598V48.891L148.547 48.8652Z" fill="#EBEBEB"/>
<path d="M27.2303 130.55H15.024L8.31563 127.267V130.55C8.04253 129.785 7.86521 128.989 7.78772 128.181C7.78772 104.257 7.78772 80.2996 7.78772 56.3075H31.9687C67.0083 56.3075 102.048 56.3075 137.087 56.3075C137.86 56.3075 139.663 55.1101 139.521 57.4149C130.083 60.5695 120.645 63.7498 111.194 66.8658C105.941 68.5826 100.67 70.2564 95.3824 71.8874C86.8328 74.4625 78.1931 76.8832 69.7336 79.7288C63.7098 81.6461 57.8354 84.0045 52.1581 86.7848C45.3725 90.2355 44.8445 96.5962 50.9606 101.077C55.5928 104.55 60.6139 107.471 65.9224 109.781C77.5312 114.494 89.8296 117.286 102.335 118.047C109.456 118.575 116.666 118.356 123.825 118.176C129.066 118.047 134.293 117.417 139.521 117.005V121.743C134.371 122.322 129.104 123.198 123.877 123.442C97.9962 124.73 73.0428 120.79 49.3382 110.451C41.6234 107.323 34.6397 102.633 28.8269 96.6735C23.6766 91.2141 24.6036 86.45 31.4021 83.2053C34.09 81.8267 36.9005 80.7016 39.7972 79.8447C48.4498 77.5528 57.244 75.6858 65.8966 73.4067C81.4636 69.2349 96.9919 64.8829 112.507 60.5308C115.43 59.7068 118.224 58.4836 121.083 57.4535L120.928 56.6552C114.181 56.9771 107.306 56.6552 100.726 57.7883C92.318 59.3076 84.2448 62.4493 75.8755 64.2262C63.9524 66.8014 51.9005 68.7972 39.8229 70.8959C30.1274 72.5827 20.3417 74.102 10.5689 75.6343C10.2249 75.6358 9.88551 75.713 9.57473 75.8604C9.26396 76.0078 8.98944 76.2219 8.77069 76.4873C8.55193 76.7528 8.3943 77.0631 8.30898 77.3964C8.22366 77.7296 8.21274 78.0775 8.277 78.4154C8.39289 82.4971 8.47014 86.5916 8.277 90.6733C8.19017 91.6929 8.36725 92.7177 8.79121 93.6491C9.21516 94.5804 9.87171 95.3869 10.6977 95.991C19.6553 103.403 29.7002 109.391 40.4796 113.747C59.183 121.73 79.0448 126.664 99.3096 128.361C112.715 129.582 126.221 129.15 139.521 127.073V130.576H76.6609C76.2217 130.358 75.7652 130.177 75.296 130.035C58.7281 126.58 42.6099 121.24 27.2561 114.12C20.9469 111.133 14.818 107.811 8.31563 104.489C8.38447 105.346 8.38447 106.207 8.31563 107.064C7.78772 109.884 8.86929 111.442 11.6505 112.73C17.9339 115.408 23.9212 118.691 30.2562 121.228C38.7027 124.601 47.3553 127.498 55.9178 130.601H41.265L8.44439 116.876C8.23838 122.94 7.50445 121.369 12.8351 123.945C17.5863 126.224 22.4276 128.348 27.2303 130.55ZM77.5493 57.1573H8.47014V64.5224C31.8785 64.664 54.862 62.6425 77.5493 57.1445V57.1573Z" fill="#EBEBEB"/>
<path d="M139.521 110.683C134.911 111.275 130.328 112.125 125.692 112.395C112.366 113.168 99.1164 112.459 86.4078 108.223C81.8465 106.727 77.5137 104.608 73.532 101.927C68.2657 98.2959 68.3816 93.6606 73.635 89.9395C76.6784 87.6749 80.0023 85.8138 83.5237 84.4029C94.6227 80.2311 105.863 76.4198 117.001 72.4798L139.469 64.574V73.3296C138.869 73.3645 138.274 73.4594 137.693 73.6129C129.516 76.6258 121.199 79.3941 113.228 82.8191C108.228 84.9993 103.465 87.6873 99.0134 90.8408C94.8287 93.8023 95.4854 98.0771 100.056 100.369C107.499 104.077 115.507 105.21 123.812 105.12C129.053 105.056 134.28 104.528 139.521 104.219V110.683Z" fill="#EBEBEB"/>
</svg>
