<svg width="79" height="48" viewBox="0 0 79 48" fill="none" xmlns="http://www.w3.org/2000/svg">
<path d="M8.45936 6.61949H11.6791C11.2428 9.61298 8.72617 10.7303 5.96798 10.7303C2.9502 10.7303 0.199219 9.40569 0.199219 5.74463C0.199219 2.08358 2.93577 0.769531 5.95356 0.769531C8.71175 0.769531 11.2284 1.89033 11.6646 4.88383H8.45936C8.16732 3.66816 7.46786 2.95492 5.96798 2.95492C4.16524 2.95492 3.36122 4.06167 3.36122 5.74463C3.36122 7.42759 4.17966 8.55542 5.96798 8.55542C7.45343 8.54488 8.1529 7.83516 8.45936 6.61949Z" fill="#CDDE00"/>
<path d="M21.8752 10.5267H12.7209V0.959473H15.8613V8.3378H21.8752V10.5267Z" fill="#CDDE00"/>
<path d="M32.0859 10.5267H22.9316V0.959473H26.072V8.3378H32.0859V10.5267Z" fill="#CDDE00"/>
<path d="M43.9515 7.7124C43.9515 9.91184 42.5094 10.5232 39.625 10.5232H33.1423V0.959473H39.8846C42.1092 0.959473 43.6054 1.46542 43.6054 3.41892C43.6054 4.53972 42.9961 5.15458 42.0046 5.48133C43.1944 5.8116 43.9515 6.46862 43.9515 7.7124ZM36.2827 3.17648V4.71891H39.5673C40.3497 4.71891 40.548 4.36756 40.548 3.92486C40.548 3.48216 40.3497 3.17648 39.5673 3.17648H36.2827ZM40.7715 7.44537C40.7715 6.99565 40.548 6.67943 39.7259 6.67943H36.2827V8.33429H39.7259C40.5732 8.32726 40.7715 7.94429 40.7715 7.44537Z" fill="#CDDE00"/>
<path d="M50.611 7.42429H48.1484V10.5267H45.0081V0.959473H51.6061C54.1624 0.959473 55.5721 2.17865 55.5721 4.12161C55.6098 4.73387 55.4467 5.34194 55.1064 5.85794C54.7662 6.37394 54.2664 6.77114 53.6792 6.99213L55.8786 10.5056H52.5002L50.611 7.42429ZM48.1484 5.2389H51.1554C52.082 5.2389 52.374 4.74701 52.374 4.13215C52.374 3.51729 51.9883 3.17648 51.1554 3.17648H48.1484V5.2389Z" fill="#CDDE00"/>
<path d="M66.4246 3.17648H62.902V10.5267H59.7653V3.17648H56.2535V0.959473H66.4138L66.4246 3.17648Z" fill="#CDDE00"/>
<path d="M78.1568 0.959473V10.5267H74.8325L70.6213 4.84188V10.5267H67.481V0.959473H70.8052L75.02 6.65835V0.959473H78.1568Z" fill="#CDDE00"/>
<path d="M4.93319 46.8174H2.38051L2.04881 47.6536H0.166748L2.62208 42.2288H4.69162L7.13974 47.6571H5.2721L4.93319 46.8174ZM4.44284 45.5595L3.65685 43.5955L2.87807 45.5595H4.44284Z" fill="#CDDE00"/>
<path d="M12.7354 47.6536H7.51831V42.2288H9.32105V46.4098H12.7499L12.7354 47.6536Z" fill="#CDDE00"/>
<path d="M18.5546 47.6536H13.3411V42.2288H15.1438V46.4098H18.5546V47.6536Z" fill="#CDDE00"/>
<path d="M26.4145 47.6536H21.1289V42.2288H26.3388V43.4831H22.9172V44.2455H26.1261V45.4998H22.9172V46.4098H26.4145V47.6536Z" fill="#CDDE00"/>
<path d="M33.3985 42.2288L30.954 45.7422V47.6641H29.1513V45.7422L26.7068 42.2288H28.6934L30.0455 44.3931L31.4155 42.2288H33.3985Z" fill="#CDDE00"/>
<path d="M39.0662 47.6536H33.777V42.2288H38.9905V43.4831H35.5689V44.2455H38.7778V45.4998H35.5689V46.4098H39.0662V47.6536Z" fill="#CDDE00"/>
<path d="M45.794 45.9321C45.794 47.2356 44.7124 47.7697 42.6392 47.7697C40.4038 47.7697 39.5205 47.0353 39.5205 45.8935H41.3917C41.3917 46.3994 41.9975 46.5364 42.7366 46.5364C43.4757 46.5364 43.8687 46.4275 43.8687 46.1253C43.8687 45.774 43.3567 45.774 41.8388 45.5456C40.2128 45.2891 39.6395 44.9378 39.6395 43.8521C39.6395 42.7665 40.494 42.1165 42.5455 42.1165C44.7917 42.1165 45.4551 42.9456 45.4551 43.8732H43.6524C43.6524 43.5008 43.2305 43.3392 42.5419 43.3392C41.8532 43.3392 41.4386 43.4481 41.4386 43.7573C41.4386 44.1297 42.0984 44.1613 43.0034 44.2527C44.6403 44.4424 45.794 44.5583 45.794 45.9321Z" fill="#CDDE00"/>
<path d="M55.0169 44.9377C55.0169 47.0177 53.2863 47.7696 51.5737 47.7696C49.8611 47.7696 48.1377 47.0177 48.1377 44.9377C48.1377 42.8578 49.8575 42.127 51.5737 42.127C53.2899 42.127 55.0169 42.8683 55.0169 44.9377ZM53.2142 44.9377C53.2142 43.954 52.6337 43.3567 51.5917 43.3567C51.3733 43.336 51.1528 43.3627 50.9461 43.4348C50.7395 43.507 50.5517 43.6227 50.3963 43.7738C50.241 43.9249 50.1218 44.1076 50.0473 44.3088C49.9729 44.51 49.945 44.7248 49.9657 44.9377C49.9657 45.9321 50.557 46.5294 51.5917 46.5294C52.6265 46.5294 53.1962 45.9321 53.1962 44.9377H53.2142Z" fill="#CDDE00"/>
<path d="M61.7086 42.2288V47.6571H59.8121L57.4109 44.4317V47.6571H55.6082V42.2288H57.501L59.9059 45.4612V42.2288H61.7086Z" fill="#CDDE00"/>
<path d="M72.1321 42.2288V47.6571H70.3293V44.1436L69.0638 47.6571H67.4774L66.2083 44.1436V47.6571H64.4055V42.2288H67.0195L68.2598 45.7949L69.5181 42.2288H72.1321Z" fill="#CDDE00"/>
<path d="M78.1748 47.6536H72.8892V42.2288H78.0991V43.4831H74.6775V44.2455H77.8863V45.4998H74.6775V46.4098H78.1748V47.6536Z" fill="#CDDE00"/>
<path d="M56.9674 25.097C57.2825 25.0804 57.579 24.9467 57.796 24.7235C58.0129 24.5003 58.1339 24.2046 58.1339 23.8971C58.1339 23.5897 58.0129 23.2939 57.796 23.0707C57.579 22.8475 57.2825 22.7139 56.9674 22.6973L56.6069 22.7535C56.3202 22.8328 56.0729 23.0112 55.9114 23.2553C55.7499 23.4994 55.6852 23.7925 55.7294 24.0798C55.7736 24.367 55.9236 24.6287 56.1515 24.816C56.3794 25.0032 56.6695 25.1031 56.9674 25.097Z" fill="#CDDE00"/>
<path d="M58.7017 29.5241C57.1785 29.5234 55.7166 28.9397 54.6309 27.8987C53.5451 26.8577 52.9224 25.4428 52.8969 23.9587L48.8407 25.6874V26.8749L53.8235 28.983C55.3584 29.637 57.0156 29.9746 58.6909 29.9746C60.3661 29.9746 62.0233 29.637 63.5582 28.983L68.5446 26.8749V25.6874L64.5029 23.9587C64.4792 25.4428 63.8576 26.8582 62.7722 27.8995C61.6868 28.9408 60.2248 29.5243 58.7017 29.5241Z" fill="#CDDE00"/>
<path d="M39.1708 13.9172V38.4765H78.1748V13.9172H39.1708ZM72.7233 25.0972V29.4715L63.5654 33.3714C62.0304 34.0254 60.3733 34.363 58.698 34.363C57.0228 34.363 55.3656 34.0254 53.8306 33.3714L44.698 29.4785H44.6799V23.4107V23.0945L53.8342 19.1945C55.369 18.5397 57.0262 18.2011 58.7016 18.2002C60.3759 18.2015 62.0318 18.54 63.5654 19.1945L72.7233 23.0945V25.0972Z" fill="#CDDE00"/>
<path d="M39.2213 16.2291V36.1505H2.69058V16.2291H39.2213ZM41.7451 13.9102H0.166748V38.4694H41.7595V13.9172L41.7451 13.9102Z" fill="#CDDE00"/>
<path d="M7.77435 36.1998H4.35636L2.4779 35.3039V36.1998C2.40143 35.9911 2.35178 35.774 2.33008 35.5533C2.33008 29.0253 2.33008 22.4879 2.33008 15.9411H9.10116C18.9129 15.9411 28.7246 15.9411 38.5363 15.9411C38.7526 15.9411 39.2574 15.6143 39.2177 16.2432C36.5749 17.104 33.9321 17.9718 31.2856 18.8221C29.8146 19.2906 28.3388 19.7473 26.8581 20.1924C24.4641 20.8951 22.0448 21.5556 19.676 22.3321C17.9893 22.8553 16.3443 23.4988 14.7545 24.2575C12.8545 25.1991 12.7066 26.9348 14.4192 28.1575C15.7163 29.1051 17.1223 29.9022 18.6088 30.5326C21.8595 31.8186 25.3032 32.5804 28.8051 32.7882C30.7989 32.9323 32.818 32.8726 34.8226 32.8234C36.2901 32.7882 37.7539 32.6161 39.2177 32.5036V33.7966C37.7755 33.9547 36.3009 34.1936 34.837 34.2604C27.59 34.6117 20.6026 33.5366 13.9649 30.7153C11.8047 29.8619 9.8491 28.5819 8.22142 26.9558C6.77923 25.4661 7.03883 24.1661 8.94252 23.2807C9.69517 22.9046 10.4822 22.5976 11.2933 22.3637C13.7162 21.7383 16.1787 21.2289 18.6016 20.607C22.9606 19.4686 27.3088 18.281 31.6534 17.0935C32.4719 16.8686 33.2542 16.5348 34.0547 16.2538L34.0114 16.0359C32.1221 16.1238 30.1968 16.0359 28.3544 16.3451C26 16.7597 23.7394 17.617 21.3958 18.1018C18.0572 18.8045 14.6824 19.3491 11.3005 19.9218C8.58558 20.3821 5.84542 20.7967 3.10886 21.2148C3.01254 21.2152 2.9175 21.2363 2.83047 21.2765C2.74345 21.3167 2.66658 21.3751 2.60533 21.4476C2.54407 21.52 2.49993 21.6047 2.47604 21.6956C2.45215 21.7866 2.44909 21.8815 2.46709 21.9737C2.49954 23.0875 2.52117 24.2048 2.46709 25.3186C2.44277 25.5968 2.49236 25.8764 2.61107 26.1306C2.72979 26.3847 2.91363 26.6048 3.14492 26.7696C5.6532 28.792 8.46594 30.4262 11.4844 31.6147C16.7216 33.7931 22.2833 35.1394 27.9578 35.6025C31.7117 35.9357 35.4934 35.8177 39.2177 35.2512V36.2069H21.6158C21.4928 36.1474 21.365 36.0981 21.2336 36.0593C16.5943 35.1165 12.0809 33.6595 7.78156 31.7166C6.01487 30.9015 4.29867 29.995 2.4779 29.0885C2.49718 29.3224 2.49718 29.5574 2.4779 29.7912C2.33008 30.5607 2.63294 30.9858 3.41172 31.3372C5.17119 32.068 6.84774 32.9639 8.62163 33.6561C10.9868 34.5766 13.4097 35.3671 15.8073 36.2139H11.7043L2.51396 32.4685C2.45627 34.1234 2.25076 33.6947 3.74342 34.3974C5.07384 35.0193 6.4295 35.599 7.77435 36.1998ZM21.8645 16.1729H2.52117V18.1827C9.07592 18.2213 15.5117 17.6697 21.8645 16.1694V16.1729Z" fill="#CDDE00"/>
<path d="M39.2177 30.7783C37.9269 30.94 36.6434 31.1718 35.3454 31.2456C31.6137 31.4564 27.9037 31.2632 24.3451 30.1073C23.0678 29.699 21.8546 29.1209 20.7396 28.3892C19.265 27.3984 19.2974 26.1335 20.7685 25.1181C21.6207 24.5002 22.5514 23.9923 23.5375 23.6073C26.6454 22.4689 29.793 21.4289 32.9117 20.3538L39.2033 18.1965V20.5857C39.0352 20.5952 38.8685 20.6211 38.7057 20.663C36.4162 21.4852 34.0871 22.2406 31.8553 23.1751C30.4551 23.7701 29.1213 24.5036 27.8749 25.3641C26.7031 26.1722 26.887 27.3386 28.1669 27.964C30.2509 28.9759 32.4935 29.2851 34.819 29.2605C36.2864 29.2429 37.7502 29.0989 39.2177 29.0146V30.7783Z" fill="#CDDE00"/>
</svg>
